<?xml version="1.0" encoding="iso-8859-1"?>
<!-- Generator: Adobe Illustrator 19.0.0, SVG Export Plug-In . SVG Version: 6.00 Build 0)  -->
<svg version="1.1" id="Capa_1" xmlns="http://www.w3.org/2000/svg" xmlns:xlink="http://www.w3.org/1999/xlink" x="0px" y="0px"
	 viewBox="0 0 512 512" style="enable-background:new 0 0 512 512;" xml:space="preserve">
<g>
	<path style="fill:#FD6F71;" d="M371.504,366.425h-35.665l0,0l-23.694,75.729L335.839,512l0,0h49.449l7.726-5.045L400.74,512h42.557
		C458.935,398.804,371.504,366.425,371.504,366.425z"/>
	<path style="fill:#FD6F71;" d="M176.161,366.425h-35.665c0,0-87.431,32.379-71.793,145.575h42.557l7.726-4.358l7.726,4.358h49.449
		l23.694-69.845L176.161,366.425z"/>
</g>
<path style="fill:#E34B4C;" d="M163.16,366.425h-22.664c0,0-87.431,32.379-71.793,145.575h22.664
	C75.728,398.804,163.16,366.425,163.16,366.425z"/>
<g>
	<circle style="fill:#E3B098;" cx="64.973" cy="235.335" r="38.726"/>
	<circle style="fill:#E3B098;" cx="447.026" cy="235.335" r="38.726"/>
	<path style="fill:#E3B098;" d="M424.179,162.769H88.166v53.613c-0.22,3.478-0.346,6.982-0.346,10.514
		c0,91.615,75.297,165.885,168.179,165.885s168.179-74.269,168.179-165.885c0-3.532-0.126-7.036-0.346-10.514h0.346v-53.613H424.179
		z"/>
</g>
<rect x="176.161" y="366.425" style="fill:#EFEDEE;" width="159.678" height="145.575"/>
<path style="fill:#3A484A;" d="M156.084,257.91c-4.267,0-7.726-3.459-7.726-7.726v-25.552c0-4.267,3.459-7.726,7.726-7.726
	c4.267,0,7.726,3.459,7.726,7.726v25.552C163.81,254.451,160.351,257.91,156.084,257.91z"/>
<path style="fill:#C86D5C;" d="M165.325,204.401l-9.242-15.363l-9.242,15.363c-7.122,0-12.896,5.773-12.896,12.896l0,0
	c0,7.122,5.773,12.896,12.896,12.896h18.484c7.122,0,12.896-5.773,12.896-12.896l0,0
	C178.221,210.174,172.448,204.401,165.325,204.401z"/>
<path style="fill:#3A484A;" d="M355.916,257.91c-4.267,0-7.726-3.459-7.726-7.726v-25.552c0-4.267,3.459-7.726,7.726-7.726
	c4.267,0,7.726,3.459,7.726,7.726v25.552C363.642,254.451,360.183,257.91,355.916,257.91z"/>
<path style="fill:#C86D5C;" d="M346.674,204.401l9.242-15.363l9.242,15.363c7.122,0,12.896,5.773,12.896,12.896l0,0
	c0,7.122-5.773,12.896-12.896,12.896h-18.483c-7.122,0-12.896-5.773-12.896-12.896l0,0
	C333.778,210.174,339.552,204.401,346.674,204.401z"/>
<path style="fill:#506366;" d="M65.354,204.401C29.076,143.003-2.58,101.13,48.246,101.13C136.156,101.13,123.245,0,256,0
	s119.844,101.13,207.753,101.13c50.827,0,19.171,41.873-17.108,103.272H65.354z"/>
<path style="fill:#3A484A;" d="M85.965,204.401c-27.867-47.163-25.599-84.432-22.778-104.35c-4.647,0.699-9.604,1.079-14.94,1.079
	c-50.827,0-19.171,41.873,17.108,103.272h381.291l0,0H85.965z"/>
<path style="fill:#EFEDEE;" d="M321.754,116.766c0-36.315-29.439-65.754-65.754-65.754s-65.754,29.439-65.754,65.754
	c0,20.603,9.482,30.983,24.312,36.114v10.982c0,5.722,4.639,10.361,10.361,10.361c5.722,0,10.361-4.639,10.361-10.361
	c0,5.722,4.639,10.361,10.361,10.361c5.722,0,10.361-4.639,10.361-10.361c0,5.722,4.639,10.361,10.361,10.361
	s10.361-4.639,10.361-10.361c0,5.722,4.639,10.361,10.361,10.361c5.722,0,10.361-4.639,10.361-10.361V152.88
	C312.272,147.75,321.754,137.369,321.754,116.766z"/>
<g>
	<path style="fill:#3A484A;" d="M221.189,139.898c-4.267,0-7.726-3.459-7.726-7.726v-6.301c0-4.267,3.459-7.726,7.726-7.726
		c4.267,0,7.726,3.459,7.726,7.726v6.301C228.915,136.438,225.456,139.898,221.189,139.898z"/>
	<path style="fill:#3A484A;" d="M290.811,139.898c-4.267,0-7.726-3.459-7.726-7.726v-6.301c0-4.267,3.459-7.726,7.726-7.726
		c4.267,0,7.726,3.459,7.726,7.726v6.301C298.537,136.438,295.078,139.898,290.811,139.898z"/>
</g>
<path style="fill:#B8B8B8;" d="M256,401.669c0,0-52.058,35.189-52.972,67.076c-0.207,7.23,5.26,13.587,12.487,13.884
	c3.425,0.141,6.574-1.039,8.976-3.073c2.682-2.271,6.656-2.139,9.364,0.099c2.256,1.865,5.151,2.985,8.307,2.985
	c3.303,0,6.485-1.227,8.964-3.25c2.868-2.342,6.881-2.342,9.749,0c2.479,2.023,5.66,3.25,8.964,3.25c3.156,0,6.05-1.121,8.307-2.985
	c2.708-2.239,6.683-2.369,9.364-0.099c2.402,2.034,5.551,3.214,8.976,3.073c7.227-0.297,12.694-6.654,12.487-13.884
	C308.058,436.858,256,401.669,256,401.669z"/>
<circle style="fill:#D2D2D2;" cx="256" cy="411.969" r="26.888"/>
<path style="fill:#C86D5C;" d="M403.831,204.401c0,92.291-44.813,99.502-44.813,99.502c-41.207,9.272-61.296-33.481-103.018-33.481
	s-61.811,42.753-103.018,33.481c0,0-44.813-7.211-44.813-99.502H65.362c-0.251,3.949-0.384,7.93-0.384,11.942
	c0,104.06,85.524,188.416,191.022,188.416s191.022-84.356,191.022-188.416c0-4.012-0.133-7.992-0.384-11.942L403.831,204.401
	L403.831,204.401z"/>
<path style="fill:#AD4F3D;" d="M85.581,216.343c0-4.012,0.133-7.992,0.384-11.942H65.362c-0.251,3.949-0.384,7.93-0.384,11.942
	c0,104.06,85.524,188.416,191.022,188.416c3.456,0,6.891-0.096,10.302-0.275C165.593,399.205,85.581,316.993,85.581,216.343z"/>
<path style="fill:#3A484A;" d="M256,316.895c-9.738,0-18.88-4.069-25.083-11.165c-2.808-3.213-2.481-8.094,0.732-10.902
	s8.094-2.481,10.902,0.732c3.267,3.737,8.169,5.881,13.448,5.881c5.279,0,10.179-2.144,13.447-5.881
	c2.808-3.213,7.688-3.541,10.902-0.732c3.213,2.808,3.541,7.689,0.732,10.902C274.879,312.826,265.737,316.895,256,316.895z"/>
<g>
	<path style="fill:#E34B4C;" d="M111.259,512v-55.458c0-4.267,3.459-7.726,7.726-7.726c4.267,0,7.726,3.459,7.726,7.726V512H111.259
		z"/>
	<path style="fill:#E34B4C;" d="M385.287,512v-55.458c0-4.267,3.459-7.726,7.726-7.726c4.267,0,7.726,3.459,7.726,7.726V512H385.287
		z"/>
</g>
<g>
</g>
<g>
</g>
<g>
</g>
<g>
</g>
<g>
</g>
<g>
</g>
<g>
</g>
<g>
</g>
<g>
</g>
<g>
</g>
<g>
</g>
<g>
</g>
<g>
</g>
<g>
</g>
<g>
</g>
</svg>
